<svg width="43" height="43" viewBox="0 0 43 43" fill="none" xmlns="http://www.w3.org/2000/svg">
<g clip-path="url(#clip0_7_7055)">
<path d="M38.6799 13.4902H5.07988C2.76012 13.4902 0.879883 15.3704 0.879883 17.6902V36.5902C0.879883 38.91 2.76012 40.7902 5.07988 40.7902H38.6799C40.9996 40.7902 42.8799 38.91 42.8799 36.5902V17.6902C42.8799 15.3704 40.9996 13.4902 38.6799 13.4902ZM40.7799 36.5902C40.7799 37.748 39.8377 38.6902 38.6799 38.6902H5.07988C3.9221 38.6902 2.97988 37.748 2.97988 36.5902V17.6902C2.97988 16.5325 3.9221 15.5902 5.07988 15.5902H38.6799C39.8377 15.5902 40.7799 16.5325 40.7799 17.6902V36.5902Z" fill="#417394"/>
<path d="M33.0392 5.41643C32.0585 3.31364 29.5602 2.40432 27.4574 3.38501L10.29 11.3902H15.2586L28.3452 5.28837C29.3945 4.79906 30.6469 5.25475 31.1361 6.30409L33.5083 11.3902H35.8253L33.0392 5.41643Z" fill="#417394"/>
<path d="M13.4801 17.6914H7.18008C6.02016 17.6914 5.08008 18.6314 5.08008 19.7914V23.9914C5.08008 25.1513 6.02016 26.0914 7.18008 26.0914H13.4801C14.64 26.0914 15.5801 25.1513 15.5801 23.9914V19.7914C15.5801 18.6314 14.64 17.6914 13.4801 17.6914ZM13.4801 23.9914H7.18008V19.7914H13.4801V23.9914Z" fill="#417394"/>
<path d="M26.0801 32.3906H5.08008V34.4906H26.0801V32.3906Z" fill="#417394"/>
<path d="M35.5297 30.291C34.7191 30.291 33.9876 30.606 33.4297 31.1086C32.8718 30.606 32.1403 30.291 31.3297 30.291C29.5902 30.291 28.1797 31.7015 28.1797 33.441C28.1797 35.1805 29.5902 36.591 31.3297 36.591C32.1403 36.591 32.8718 36.276 33.4297 35.7734C33.9876 36.276 34.7191 36.591 35.5297 36.591C37.2692 36.591 38.6797 35.1805 38.6797 33.441C38.6797 31.7015 37.2692 30.291 35.5297 30.291ZM31.3297 34.491C30.7508 34.491 30.2797 34.0199 30.2797 33.441C30.2797 32.8621 30.7508 32.391 31.3297 32.391C31.9086 32.391 32.3797 32.8621 32.3797 33.441C32.3797 34.0199 31.9086 34.491 31.3297 34.491ZM35.5297 34.491C34.9508 34.491 34.4797 34.0199 34.4797 33.441C34.4797 32.8621 34.9508 32.391 35.5297 32.391C36.1086 32.391 36.5797 32.8621 36.5797 33.441C36.5797 34.0199 36.1086 34.491 35.5297 34.491Z" fill="#417394"/>
</g>
<defs>
<clipPath id="clip0_7_7055">
<rect width="42" height="42" fill="white" transform="translate(0.879883 0.890625)"/>
</clipPath>
</defs>
</svg>
