<svg width="43" height="43" viewBox="0 0 43 43" fill="none" xmlns="http://www.w3.org/2000/svg">
<path d="M21.25 7.8903C24.4225 7.89774 27.4984 8.98248 29.9738 10.9668H26.9235C26.4594 10.9668 26.0143 11.1512 25.6861 11.4794C25.3579 11.8075 25.1735 12.2527 25.1735 12.7168C25.1735 13.1809 25.3579 13.626 25.6861 13.9542C26.0143 14.2824 26.4594 14.4668 26.9235 14.4668H33.9235C34.3877 14.4668 34.8328 14.2824 35.161 13.9542C35.4891 13.626 35.6735 13.1809 35.6735 12.7168V5.7168C35.6735 5.25267 35.4891 4.80755 35.161 4.47936C34.8328 4.15117 34.3877 3.9668 33.9235 3.9668C33.4594 3.9668 33.0143 4.15117 32.6861 4.47936C32.3579 4.80755 32.1735 5.25267 32.1735 5.7168V8.2508C29.6045 6.18329 26.5028 4.8851 23.227 4.50631C19.9512 4.12752 16.6351 4.6836 13.662 6.11027C10.689 7.53694 8.18043 9.77592 6.4264 12.5684C4.67236 15.3608 3.74448 18.5927 3.75002 21.8903C3.75002 22.3544 3.9344 22.7995 4.26259 23.1277C4.59078 23.4559 5.0359 23.6403 5.50002 23.6403C5.96415 23.6403 6.40927 23.4559 6.73746 23.1277C7.06565 22.7995 7.25002 22.3544 7.25002 21.8903C7.25419 18.1785 8.73053 14.62 11.3551 11.9954C13.9797 9.3708 17.5383 7.89447 21.25 7.8903Z" fill="#417394"/>
<path d="M37.0004 20.1406C36.5363 20.1406 36.0912 20.325 35.763 20.6532C35.4348 20.9814 35.2504 21.4265 35.2504 21.8906C35.2551 24.5272 34.5139 27.1113 33.1123 29.3445C31.7108 31.5777 29.7061 33.3689 27.3299 34.5111C24.9536 35.6534 22.3027 36.1002 19.6833 35.8C17.0638 35.4997 14.5828 34.4645 12.5267 32.8141H15.5752C16.0393 32.8141 16.4844 32.6297 16.8126 32.3016C17.1408 31.9734 17.3252 31.5283 17.3252 31.0641C17.3252 30.6 17.1408 30.1549 16.8126 29.8267C16.4844 29.4985 16.0393 29.3141 15.5752 29.3141H8.5752C8.11107 29.3141 7.66595 29.4985 7.33776 29.8267C7.00957 30.1549 6.8252 30.6 6.8252 31.0641V38.0641C6.8252 38.5283 7.00957 38.9734 7.33776 39.3016C7.66595 39.6297 8.11107 39.8141 8.5752 39.8141C9.03932 39.8141 9.48444 39.6297 9.81263 39.3016C10.1408 38.9734 10.3252 38.5283 10.3252 38.0641V35.5301C12.8944 37.5974 15.9962 38.8955 19.272 39.2742C22.5478 39.6529 25.864 39.0968 28.8371 37.6702C31.8102 36.2436 34.3188 34.0047 36.0731 31.2124C37.8274 28.42 38.7556 25.1883 38.7504 21.8906C38.7504 21.4265 38.5661 20.9814 38.2379 20.6532C37.9097 20.325 37.4646 20.1406 37.0004 20.1406Z" fill="#417394"/>
</svg>
