<svg width="43" height="43" viewBox="0 0 43 43" fill="none" xmlns="http://www.w3.org/2000/svg">
<g clip-path="url(#clip0_7_7038)">
<mask id="mask0_7_7038" style="mask-type:luminance" maskUnits="userSpaceOnUse" x="0" y="1" width="43" height="42">
<path d="M42.6904 1.35742H0.69043V42.4241H42.6904V1.35742Z" fill="white"/>
</mask>
<g mask="url(#mask0_7_7038)">
<path d="M15.0348 25.0266L13.9777 26.0299C13.8283 26.1717 13.7441 26.3663 13.7441 26.5698V26.9979C13.7441 27.4134 14.0888 27.7504 14.514 27.7504H20.8264C21.252 27.7504 21.5964 27.4134 21.5964 26.9979V26.4437C21.5964 26.0282 21.252 25.6911 20.8264 25.6911H17.3385L17.4347 25.6046C19.7142 23.4572 21.3277 21.767 21.3277 19.5662C21.3277 17.8067 20.1581 16.0312 17.5443 16.0312C16.4032 16.0312 15.2858 16.3893 14.3975 17.0391C14.1091 17.2507 14.0089 17.6299 14.1574 17.9515L14.3516 18.3713C14.4458 18.5755 14.6278 18.7279 14.849 18.7874C15.0688 18.8467 15.3062 18.8066 15.4938 18.6785C16.065 18.2885 16.653 18.0906 17.242 18.0906C18.3883 18.0906 18.9694 18.6479 18.9694 19.7394C18.9541 21.2184 17.6993 22.5463 15.0348 25.0266Z" fill="#417394"/>
<path d="M26.5397 16.2136C26.5191 16.2118 26.4983 16.2109 26.4779 16.2109H26.2428C25.9911 16.2109 25.7557 16.3312 25.6118 16.5325L20.8975 23.1292C20.8071 23.2556 20.7588 23.4061 20.7588 23.5603V24.0891C20.7588 24.5047 21.1032 24.8418 21.5283 24.8418H25.8328V26.9969C25.8328 27.4124 26.1772 27.7494 26.6022 27.7494H27.3372C27.7621 27.7494 28.1071 27.4124 28.1071 26.9969V24.8418H28.8659C29.291 24.8418 29.6358 24.5047 29.6358 24.0891V23.6004C29.6358 23.185 29.291 22.8479 28.8659 22.8479H28.1071V16.9636C28.1071 16.5482 27.7621 16.2111 27.3372 16.2111H26.6022C26.5812 16.2111 26.5601 16.2119 26.5397 16.2136ZM25.8328 22.8479H23.5085C24.099 22.0096 25.1086 20.5708 25.8328 19.5075V22.8479Z" fill="#417394"/>
<path d="M21.7194 39.1689C12.6605 39.1689 5.29042 31.9625 5.29042 23.1049C5.29042 14.7176 11.8991 7.81219 20.292 7.10226V9.66292C20.292 9.84483 20.3947 10.012 20.5588 10.0974C20.6331 10.1363 20.7145 10.1553 20.7956 10.1553C20.8938 10.1553 20.9919 10.1271 21.0763 10.0715L27.0228 6.1651C27.1621 6.07369 27.2456 5.92042 27.2456 5.75635C27.2456 5.59241 27.1621 5.43902 27.0228 5.34761L21.0763 1.44118C20.9219 1.33974 20.7229 1.32958 20.5587 1.41539C20.3946 1.50095 20.2919 1.66814 20.2919 1.84992V3.83622C10.0611 4.55396 1.96094 12.9214 1.96094 23.1048C1.96094 33.7575 10.8247 42.4241 21.7193 42.4241C26.7634 42.4241 31.5654 40.5658 35.2407 37.1917L32.962 34.8185C29.9061 37.6239 25.9136 39.1689 21.7194 39.1689Z" fill="#417394"/>
<path d="M38.5853 13.0367C37.9046 11.9483 37.1087 10.9205 36.2203 9.98242L33.7773 12.1941C34.5167 12.9748 35.1786 13.8299 35.7451 14.7352L38.5853 13.0367Z" fill="#417394"/>
<path d="M37.9983 20.924L41.2974 20.4861C41.1214 19.2178 40.8147 17.9635 40.3857 16.7578L37.2412 17.827C37.5974 18.8282 37.852 19.8702 37.9983 20.924Z" fill="#417394"/>
<path d="M33.0518 7.27704C31.9804 6.54224 30.8307 5.91031 29.6345 5.39844L28.2998 8.38075C29.2939 8.80615 30.2495 9.33144 31.14 9.94215L33.0518 7.27704Z" fill="#417394"/>
<path d="M34.4111 33.3056L36.9818 35.3743C37.8133 34.3864 38.5465 33.3147 39.1609 32.189L36.2238 30.6562C35.7129 31.5922 35.1031 32.4837 34.4111 33.3056Z" fill="#417394"/>
<path d="M38.1003 24.3477C38.0174 25.4099 37.8258 26.4655 37.5312 27.485L40.735 28.3707C41.0901 27.1433 41.3204 25.8732 41.4203 24.5957L38.1003 24.3477Z" fill="#417394"/>
</g>
</g>
<defs>
<clipPath id="clip0_7_7038">
<rect width="42" height="42" fill="white" transform="translate(0.69043 0.890625)"/>
</clipPath>
</defs>
</svg>
