<svg width="43" height="43" viewBox="0 0 43 43" fill="none" xmlns="http://www.w3.org/2000/svg">
<g clip-path="url(#clip0_7_7023)">
<g clip-path="url(#clip1_7_7023)">
<path d="M39.5598 24.4296L38.4722 20.0791C38.7695 20.016 38.9927 19.7521 38.9927 19.4361V18.7346C38.9927 17.2116 37.7536 15.9726 36.2306 15.9726H31.2766V14.5258C31.2766 13.7764 30.667 13.1667 29.9176 13.1667H20.7059L26.3037 10.9276C26.641 10.7928 26.805 10.41 26.6701 10.0728C26.5352 9.73561 26.1527 9.57147 25.8152 9.70641L21.2319 11.5397C22.6285 10.6436 24.0104 9.65735 24.5364 8.96763C25.5605 7.62486 25.3012 5.69926 23.9584 4.6751C22.6156 3.65086 20.6901 3.91033 19.6658 5.25309C18.9176 6.23435 17.9303 8.9915 17.2912 10.9344C16.6522 8.99167 15.6649 6.23435 14.9166 5.25309C13.8925 3.91033 11.9669 3.65102 10.624 4.6751C9.28128 5.69918 9.02198 7.62478 10.046 8.96763C10.5722 9.65743 11.9539 10.6436 13.3506 11.5397L8.76719 9.70641C8.4298 9.5713 8.0472 9.73552 7.91234 10.0728C7.77741 10.41 7.94146 10.7928 8.2787 10.9276L13.8765 13.1667H4.66489C3.91545 13.1667 3.3058 13.7764 3.3058 14.5258V26.4508C3.3058 26.8139 3.60021 27.1083 3.96344 27.1083C4.32659 27.1083 4.62109 26.814 4.62109 26.4508V14.5258C4.62109 14.5017 4.64069 14.482 4.66489 14.482H29.9175C29.9417 14.482 29.9613 14.5017 29.9613 14.5258V26.4508C29.9613 26.8141 30.2557 27.1085 30.619 27.1085C30.9821 27.1085 31.2765 26.8141 31.2765 26.4508V25.7053H39.034C39.0347 25.7053 39.0353 25.7055 39.036 25.7055C39.0367 25.7055 39.0374 25.7054 39.0381 25.7054C39.9926 25.7062 40.8031 26.3328 41.0814 27.1961H39.0364C38.6733 27.1961 38.3788 27.4904 38.3788 27.8536V29.2565C38.3788 30.3928 39.3031 31.3171 40.4394 31.3171H41.1847V34.2106H39.4652C38.9003 32.5797 37.3498 31.4047 35.5291 31.4047C33.7084 31.4047 32.1579 32.5796 31.5931 34.2106H31.2765V29.2565C31.2765 28.8933 30.9821 28.5989 30.6189 28.5989C30.2557 28.5989 29.9612 28.8932 29.9612 29.2565V34.2105H16.317C15.7521 32.5796 14.2016 31.4047 12.381 31.4047C10.5603 31.4047 9.00975 32.5795 8.44497 34.2105H4.66489C4.64069 34.2105 4.62109 34.191 4.62109 34.1667V32.7199H7.47077C7.83393 32.7199 8.12841 32.4255 8.12841 32.0623C8.12841 31.699 7.834 31.4047 7.47077 31.4047H1.15764C0.794493 31.4047 0.5 31.699 0.5 32.0623C0.5 32.4255 0.79441 32.7199 1.15764 32.7199H3.30588V34.1667C3.30588 34.9161 3.91554 35.5258 4.66497 35.5258H8.21725C8.21709 35.5404 8.21611 35.5549 8.21611 35.5696C8.21611 37.8661 10.0845 39.7345 12.381 39.7345C14.6775 39.7345 16.5459 37.8661 16.5459 35.5696C16.5459 35.5548 16.5449 35.5404 16.5448 35.5258H31.3653C31.3651 35.5404 31.3642 35.5549 31.3642 35.5696C31.3642 37.8661 33.2326 39.7345 35.5291 39.7345C37.8255 39.7345 39.6939 37.8661 39.6939 35.5696C39.6939 35.5548 39.693 35.5404 39.6928 35.5258H41.8423C42.2054 35.5258 42.4999 35.2314 42.4999 34.8682V27.8536C42.5 26.1216 41.2222 24.6826 39.5598 24.4296ZM14.6832 10.8224C12.0891 9.21036 11.3197 8.46872 11.0918 8.16997C10.5076 7.40387 10.6555 6.30522 11.4217 5.72092C11.7376 5.48008 12.1098 5.36367 12.4794 5.36367C13.0062 5.36367 13.5273 5.60042 13.8709 6.05077C14.507 6.88486 15.5033 9.69222 16.161 11.7151C15.7171 11.4538 15.2069 11.148 14.6832 10.8224ZM18.4216 11.7151C19.0794 9.69222 20.0756 6.88494 20.7116 6.05068C21.296 5.28459 22.3946 5.13669 23.1607 5.72092C23.9269 6.30522 24.0748 7.40387 23.4906 8.16997C23.2628 8.46863 22.4933 9.21036 19.8994 10.8223C19.3758 11.1478 18.8655 11.4538 18.4216 11.7151ZM31.2766 17.2877H36.2306C37.0284 17.2877 37.6774 17.9368 37.6774 18.7345V18.7783H31.2766V17.2877ZM31.2766 24.3901V20.0936H37.1202L38.1942 24.3901H31.2766ZM12.381 38.4193C10.8097 38.4193 9.53132 37.1409 9.53132 35.5696C9.53132 33.9983 10.8097 32.7199 12.381 32.7199C13.9523 32.7199 15.2306 33.9983 15.2306 35.5696C15.2306 37.1409 13.9523 38.4193 12.381 38.4193ZM35.5292 38.4193C33.958 38.4193 32.6795 37.1409 32.6795 35.5696C32.6795 33.9983 33.958 32.7199 35.5292 32.7199C37.1005 32.7199 38.3789 33.9983 38.3789 35.5696C38.3789 37.1409 37.1005 38.4193 35.5292 38.4193ZM41.1848 30.0018H40.4394C40.0285 30.0018 39.6941 29.6674 39.6941 29.2564V28.511H41.1847L41.1848 30.0018Z" fill="#417394"/>
<path d="M12.3807 34.209C11.6312 34.209 11.0215 34.8187 11.0215 35.5681C11.0215 36.3175 11.6312 36.9271 12.3807 36.9271C13.1301 36.9271 13.7397 36.3175 13.7397 35.5681C13.7397 34.8187 13.1301 34.209 12.3807 34.209Z" fill="#417394"/>
<path d="M35.5291 34.209C34.7796 34.209 34.1699 34.8187 34.1699 35.5681C34.1699 36.3175 34.7796 36.9271 35.5291 36.9271C36.2785 36.9271 36.8882 36.3175 36.8882 35.5681C36.8882 34.8187 36.2785 34.209 35.5291 34.209Z" fill="#417394"/>
<path d="M27.8131 31.4043H17.9926C17.6294 31.4043 17.335 31.6987 17.335 32.062C17.335 32.4252 17.6293 32.7196 17.9926 32.7196H27.8131C28.1762 32.7196 28.4707 32.4252 28.4707 32.062C28.4707 31.6987 28.1763 31.4043 27.8131 31.4043Z" fill="#417394"/>
<path d="M10.9785 28.5977H2.56096C2.19781 28.5977 1.90332 28.892 1.90332 29.2552C1.90332 29.6185 2.19773 29.9129 2.56096 29.9129H10.9785C11.3416 29.9129 11.6361 29.6185 11.6361 29.2552C11.6361 28.892 11.3416 28.5977 10.9785 28.5977Z" fill="#417394"/>
<path d="M10.9782 18.7773H8.17229C7.80914 18.7773 7.51465 19.0717 7.51465 19.4349V25.0466C7.51465 25.4098 7.80906 25.7043 8.17229 25.7043C8.53553 25.7043 8.82994 25.4099 8.82994 25.0466V22.8984H10.2767C10.6399 22.8984 10.9344 22.604 10.9344 22.2408C10.9344 21.8775 10.64 21.5831 10.2767 21.5831H8.82994V20.0926H10.9782C11.3413 20.0926 11.6358 19.7982 11.6358 19.4349C11.6358 19.0718 11.3413 18.7773 10.9782 18.7773Z" fill="#417394"/>
<path d="M16.1534 23.2068C16.8115 22.7757 17.2474 22.0323 17.2474 21.1886C17.2474 19.859 16.1658 18.7773 14.8361 18.7773H13.0824C12.7193 18.7773 12.4248 19.0717 12.4248 19.4349V25.0466C12.4248 25.4098 12.7192 25.7043 13.0824 25.7043C13.4457 25.7043 13.7401 25.4099 13.7401 25.0466V23.5999H14.8348L16.0425 25.4113C16.1693 25.6014 16.3777 25.7043 16.5903 25.7043C16.7157 25.7043 16.8423 25.6685 16.9544 25.5938C17.2567 25.3923 17.3383 24.984 17.1367 24.6819L16.1534 23.2068ZM14.8361 22.2846H13.7401V20.0926H14.8361C15.4405 20.0926 15.9321 20.5842 15.9321 21.1886C15.9321 21.793 15.4405 22.2846 14.8361 22.2846Z" fill="#417394"/>
<path d="M21.4996 24.3891H19.3514V22.8963C19.3659 22.8973 19.3804 22.8985 19.3952 22.8985H20.7981C21.1612 22.8985 21.4558 22.6041 21.4558 22.2408C21.4558 21.8776 21.1613 21.5832 20.7981 21.5832H19.3952C19.3803 21.5832 19.3659 21.5845 19.3514 21.5854V20.0926H21.4996C21.8628 20.0926 22.1573 19.7982 22.1573 19.4349C22.1573 19.0718 21.8629 18.7773 21.4996 18.7773H18.6937C18.3306 18.7773 18.0361 19.0717 18.0361 19.4349V25.0466C18.0361 25.4098 18.3305 25.7043 18.6937 25.7043H21.4996C21.8628 25.7043 22.1573 25.4099 22.1573 25.0466C22.1573 24.6834 21.8628 24.3891 21.4996 24.3891Z" fill="#417394"/>
<path d="M26.4099 24.3891H24.2617V22.8985H25.007C25.3701 22.8985 25.6645 22.6041 25.6645 22.2408C25.6645 21.8776 25.3702 21.5832 25.007 21.5832H24.2617V20.0926H26.4099C26.773 20.0926 27.0674 19.7982 27.0674 19.4349C27.0674 19.0718 26.7731 18.7773 26.4099 18.7773H23.604C23.2408 18.7773 22.9463 19.0717 22.9463 19.4349V25.0466C22.9463 25.4098 23.2408 25.7043 23.604 25.7043H26.4099C26.773 25.7043 27.0674 25.4099 27.0674 25.0466C27.0674 24.6834 26.773 24.3891 26.4099 24.3891Z" fill="#417394"/>
</g>
</g>
<defs>
<clipPath id="clip0_7_7023">
<rect width="42" height="42" fill="white" transform="translate(0.5 0.890625)"/>
</clipPath>
<clipPath id="clip1_7_7023">
<rect width="42" height="42" fill="white" transform="translate(0.5 0.890625)"/>
</clipPath>
</defs>
</svg>
