<svg width="46" height="46" viewBox="0 0 46 46" fill="none" xmlns="http://www.w3.org/2000/svg">
<g clip-path="url(#clip0_7_7179)">
<path fill-rule="evenodd" clip-rule="evenodd" d="M45.124 42.3496C45.2383 42.4551 45.2998 42.5957 45.2998 42.7451C45.2998 42.8945 45.2383 43.0352 45.124 43.1318C45.0098 43.2285 44.8604 43.2812 44.7197 43.2637H0.695312C0.431641 43.2285 0.238281 43.0088 0.238281 42.7451C0.238281 42.4814 0.431641 42.2617 0.695312 42.2266H3.48145V3.11523C3.48145 2.83398 3.70996 2.60547 3.99121 2.60547H6.19727C6.33789 2.60547 6.46973 2.6582 6.56641 2.76367C6.66309 2.86035 6.71582 3.00098 6.70703 3.1416V7.05273H8.9834V6.72754C8.9834 6.22656 9.18555 5.73437 9.5459 5.38281C9.91504 5.03125 10.4072 4.8291 10.9082 4.83789H12.5605C13.0615 4.84668 13.5449 5.04004 13.8965 5.40039C14.248 5.75195 14.4502 6.22656 14.4502 6.72754V7H38.6992V3.11523C38.6992 2.83398 38.9365 2.60547 39.2178 2.60547H41.415C41.5557 2.60547 41.6875 2.6582 41.7842 2.76367C41.8809 2.86035 41.9424 3.00098 41.9336 3.1416V42.2266H44.7109C44.8604 42.209 45.0098 42.2529 45.124 42.3496ZM6.70703 19.0674V26.8633H8.9834V26.5469C8.9834 26.0371 9.18555 25.5537 9.5459 25.1934C9.91504 24.8418 10.4072 24.6484 10.9082 24.6572H12.5605C13.0615 24.6572 13.5449 24.8594 13.8965 25.2109C14.248 25.5625 14.4502 26.0459 14.4502 26.5469V26.8018H26.5967V25.1494C26.5908 25.1318 26.5908 25.1143 26.5967 25.0967V19.0674H6.70703ZM27.6602 19.0674V20.2363H35.3945V19.0674H27.6602ZM36.4229 19.0674V26.8369H38.6904V19.0674H36.4229ZM6.70703 37.8408H17.7549V27.874H6.70703V37.8408ZM13.3164 26.5381C13.3164 26.3184 13.2285 26.1074 13.0703 25.958C12.9121 25.7998 12.71 25.7119 12.4902 25.7119H10.8379C10.3809 25.7119 10.0117 26.0811 10.0117 26.5381V26.8369H13.3867L13.3164 26.5381ZM18.8184 37.8408H38.6992V27.8652H18.8184V37.8408ZM27.6602 24.6221H35.4297V23.4619H27.6602V24.6221ZM35.4297 21.2646H27.6602V22.4072H35.3945L35.4297 21.2646ZM27.6689 26.8369H35.4297V25.6592H27.6689V26.8369ZM6.71582 42.2266H38.6992V38.8604H6.75098L6.71582 42.2266ZM18.8184 18.0303H38.6992V8.06348H18.8184V18.0303ZM10.0117 7.05273H13.3164V6.72754C13.3164 6.50781 13.2285 6.29688 13.0703 6.14746C12.9209 5.98926 12.71 5.90137 12.4902 5.90137H10.8379C10.3809 5.90137 10.0117 6.27051 10.0117 6.72754V7.05273ZM6.71582 8.06348V18.0303H17.7549V8.06348H6.71582ZM4.55371 42.2266H5.72266V3.66016H4.55371V42.2266ZM39.7715 42.2266H40.8789V3.66016H39.7715V42.2266Z" fill="black"/>
</g>
<defs>
<clipPath id="clip0_7_7179">
<rect width="45" height="45" fill="white" transform="translate(0.299805 0.390625)"/>
</clipPath>
</defs>
</svg>
