<svg width="46" height="46" viewBox="0 0 46 46" fill="none" xmlns="http://www.w3.org/2000/svg">
<g clip-path="url(#clip0_7_7172)">
<path fill-rule="evenodd" clip-rule="evenodd" d="M44.2099 35.0722C44.4911 35.4238 44.7197 35.8193 44.8691 36.2411C45.1152 36.7597 45.0361 37.3837 44.6493 37.8232C44.4032 38.0517 44.0868 38.1835 43.7529 38.1659C43.5155 38.1659 43.287 38.122 43.0585 38.0429C42.6366 37.8935 42.2411 37.6738 41.8896 37.3837C34.832 38.3681 27.6777 38.4208 20.6113 37.5243C18.4579 38.2802 16.2079 38.9833 13.7206 39.6601C13.5097 40.0556 13.2284 40.4159 12.8945 40.7148C12.5956 41.0136 12.2001 41.1894 11.7782 41.207C11.6288 41.207 11.4794 41.1806 11.3476 41.1191C10.8202 40.8642 10.5038 40.3193 10.5302 39.7392C10.5126 39.2909 10.5654 38.8427 10.6972 38.412C6.89153 31.9433 3.99992 24.9736 2.11907 17.705C1.72356 17.4941 1.36321 17.2128 1.06438 16.8788C0.598558 16.5097 0.431565 15.8769 0.660081 15.332C0.888597 14.7782 1.4511 14.453 2.03996 14.5234C2.48821 14.497 2.94524 14.5497 3.3759 14.6816C9.84465 10.8759 16.8056 7.9843 24.0741 6.10344C24.2851 5.70793 24.5663 5.34758 24.9003 5.04875C25.2695 4.58293 25.9023 4.41594 26.456 4.64446C27.0009 4.87297 27.3349 5.43547 27.2646 6.02434C27.2821 6.47258 27.2294 6.92961 27.0976 7.36028C27.537 8.12493 27.9501 8.872 28.3544 9.61028C32.8808 9.48723 37.4072 9.73332 41.8896 10.3486C42.2411 10.0585 42.6366 9.83879 43.0585 9.68938C43.5771 9.39934 44.2275 9.48723 44.6493 9.9091C45.0712 10.331 45.1591 10.9726 44.8691 11.4911C44.7197 11.9218 44.4911 12.3085 44.2099 12.6601C45.247 20.0956 45.247 27.6366 44.2099 35.0722ZM34.12 30.1239C34.2431 30.0624 34.3837 30.0448 34.5155 30.0888C34.8935 30.2206 35.289 30.2822 35.6845 30.2646C36.0097 30.247 36.1943 30.1503 36.2294 30.0624C36.2646 29.9745 36.203 29.7812 35.9921 29.5351C35.7197 29.245 35.3945 29.0077 35.0341 28.832C34.9111 28.7704 34.8144 28.6562 34.7792 28.5243C32.8984 21.1943 29.9892 14.1718 26.1396 7.6591C26.0693 7.54485 26.0605 7.39543 26.1044 7.2636C26.2363 6.88567 26.2978 6.49016 26.2802 6.09465C26.2626 5.76946 26.1659 5.59367 26.078 5.55852C25.9989 5.52336 25.7968 5.5761 25.5507 5.79582C25.2519 6.05949 25.0234 6.38469 24.8476 6.74504C24.7861 6.86809 24.6718 6.96477 24.54 6.99992C17.2099 8.88078 10.1874 11.79 3.67473 15.6396C3.56047 15.7099 3.41106 15.7275 3.27922 15.6835C2.94524 15.5693 2.60246 15.4989 2.2509 15.4989C2.20403 15.4989 2.15715 15.4989 2.11028 15.4989C1.78508 15.5253 1.6093 15.622 1.57414 15.7099C1.5302 15.789 1.59172 15.9911 1.80266 16.2372C2.07512 16.5273 2.40032 16.7646 2.76067 16.9316C2.88371 16.9931 2.98039 17.1073 3.01555 17.2392C4.89641 24.5693 7.80559 31.5917 11.6552 38.1044C11.7255 38.2275 11.7431 38.3681 11.6991 38.4999C11.5585 38.8779 11.497 39.2734 11.5146 39.6689C11.5409 39.9941 11.6376 40.1786 11.7255 40.2138C11.8046 40.2489 11.998 40.1874 12.2529 39.9765C12.5429 39.704 12.7802 39.3788 12.9472 39.0185C13.0087 38.8954 13.123 38.8075 13.2548 38.7724C20.5849 36.8915 27.6073 33.9823 34.12 30.1239ZM43.2079 12.5722C43.1904 12.4404 43.2343 12.2997 43.3222 12.1943C43.5859 11.8954 43.7968 11.5527 43.9374 11.1835C44.0429 10.8759 44.0165 10.665 43.955 10.6034C43.8847 10.5331 43.6825 10.5156 43.3749 10.621C42.997 10.7616 42.663 10.9638 42.3642 11.2363C42.2587 11.3241 42.1181 11.3681 41.9775 11.3505C37.6357 10.7441 33.2499 10.4892 28.8642 10.5771C31.8173 16.1142 34.1025 21.9853 35.6757 28.0585C36.0712 28.2782 36.4316 28.5507 36.7304 28.8847C37.1962 29.2538 37.3632 29.8866 37.1347 30.4404C36.9062 30.9853 36.3437 31.3193 35.7548 31.2489C35.3066 31.2665 34.8583 31.2138 34.4277 31.082C30.6659 33.2792 26.746 35.1777 22.6943 36.7597C29.1103 37.4189 35.5878 37.287 41.9775 36.3818C42.1181 36.3642 42.2587 36.4081 42.3642 36.496C42.663 36.7685 42.997 36.9706 43.3749 37.1113C43.6825 37.2167 43.8847 37.1991 43.955 37.1288C44.0165 37.0673 44.0429 36.8564 43.9374 36.5488C43.7968 36.1796 43.5859 35.8368 43.3222 35.538C43.2343 35.4325 43.1904 35.2919 43.2079 35.1601C44.2714 27.663 44.2714 20.0605 43.2079 12.5722Z" fill="black"/>
</g>
<defs>
<clipPath id="clip0_7_7172">
<rect width="45" height="45" fill="white" transform="translate(0.299805 0.390625)"/>
</clipPath>
</defs>
</svg>
