<svg width="43" height="46" viewBox="0 0 43 46" fill="none" xmlns="http://www.w3.org/2000/svg">
<g clip-path="url(#clip0_7_7186)">
<path fill-rule="evenodd" clip-rule="evenodd" d="M10.6813 0.425106C11.9381 0.48663 12.9137 0.908505 14.1178 1.89288C16.1656 3.5628 18.1783 6.84112 19.6813 10.928C20.2789 12.5452 20.1734 12.721 18.5035 12.8792C17.0533 13.0198 14.4781 12.9319 13.1861 12.7034C10.5231 12.2376 8.66856 11.3587 7.20079 9.88214C5.52208 8.19464 4.92442 6.05011 5.55723 4.00225C6.07579 2.32354 7.43809 1.05792 9.24864 0.565731C9.74083 0.425106 10.0748 0.398739 10.6813 0.425106ZM9.60899 1.84015C7.78087 2.33233 6.64708 3.78253 6.66466 5.59307C6.67344 5.971 6.71739 6.44561 6.77891 6.64776C7.41173 9.02081 9.81114 10.7523 13.3268 11.3851C14.1793 11.5433 14.733 11.5784 16.3678 11.5872C17.4576 11.596 18.3893 11.5696 18.4156 11.5345C18.5738 11.3851 17.0621 8.04522 16.1217 6.4544C14.4166 3.57159 12.7818 2.08624 11.024 1.7962C10.3649 1.68194 10.1715 1.69073 9.60899 1.84015Z" fill="black"/>
<path fill-rule="evenodd" clip-rule="evenodd" d="M13.7312 5.69977C14.1619 6.32379 14.8914 7.8443 15.0496 8.4068C15.1463 8.79352 15.1375 8.84625 14.9705 9.06598C14.8387 9.25934 14.6892 9.32965 14.3201 9.38238C13.6873 9.47906 12.2195 9.39996 11.5779 9.22418C9.94315 8.79352 8.93241 7.78277 8.81815 6.45563C8.71268 5.31305 9.40702 4.34625 10.5496 4.02105C11.6307 3.71344 12.8084 4.32867 13.7312 5.69977ZM10.8133 5.32184C9.76737 5.74371 9.96952 7.07965 11.1648 7.68609C11.5428 7.87945 12.6765 8.12555 13.1863 8.12555H13.5379L13.2215 7.48395C12.8523 6.75445 12.3338 5.97223 12.0262 5.69098C11.9119 5.58551 11.6746 5.43609 11.4988 5.35699C11.1209 5.20758 11.1121 5.20758 10.8133 5.32184Z" fill="black"/>
<path fill-rule="evenodd" clip-rule="evenodd" d="M37.2163 3.15005C37.6382 3.98502 37.7964 4.66177 37.7964 5.61978C37.7964 6.59537 37.6382 7.24576 37.1811 8.16861C36.0473 10.4801 33.4809 12.0885 29.9917 12.7038C28.1811 13.0202 23.98 13.0114 23.3823 12.695C23.1889 12.5895 23.0747 12.2995 23.1098 11.9919C23.145 11.7106 23.7954 9.98795 24.3052 8.82779C26.4497 3.94986 29.2182 0.900055 31.9077 0.451813C33.9204 0.117828 36.3022 1.33072 37.2163 3.15005ZM29.3852 3.31705C27.8911 4.74088 26.2739 7.41275 25.0259 10.5417L24.6391 11.5085L25.1313 11.5788C25.8344 11.6842 28.6382 11.5876 29.5786 11.4294C31.9516 11.0251 33.4897 10.3483 34.7993 9.12662C35.9858 8.01041 36.5307 6.79752 36.4604 5.41763C36.3637 3.76529 35.4761 2.54361 33.9643 1.97232C32.4614 1.40982 30.9145 1.86685 29.3852 3.31705Z" fill="black"/>
<path fill-rule="evenodd" clip-rule="evenodd" d="M34.0697 5.26878C34.6849 6.56956 34.0081 8.11644 32.5052 8.85472C31.5032 9.34691 29.7806 9.57542 28.6732 9.36448C27.9173 9.21507 27.8558 8.88108 28.348 7.65062C29.1214 5.71702 30.2025 4.39866 31.2923 4.03831C32.347 3.68675 33.5863 4.23167 34.0697 5.26878ZM32.0042 5.23362C31.5736 5.30394 31.0726 5.6555 30.6419 6.20921C30.264 6.68382 29.5784 8.01976 29.6663 8.10765C29.6927 8.13401 30.0794 8.11644 30.5189 8.05491C31.5472 7.93187 32.3294 7.56273 32.7073 7.05296C33.1556 6.42894 32.9974 5.62034 32.3821 5.35667C32.2064 5.28636 32.0394 5.22483 32.0042 5.23362Z" fill="black"/>
<path fill-rule="evenodd" clip-rule="evenodd" d="M10.3125 14.7168C19.541 14.7168 19.3916 14.708 19.5498 15.1123C19.5762 15.1914 19.6025 16.668 19.6025 18.3906C19.6025 21.4756 19.6025 21.5195 19.4092 21.7217L19.2246 21.9238H1.37402L1.17188 21.7305L0.969727 21.5459V18.3994C0.969727 16.668 0.996094 15.1914 1.02246 15.1123C1.05762 15.0244 1.20703 14.9102 1.35645 14.8399C1.57617 14.7432 3.21973 14.7256 10.3125 14.7168ZM18.2842 16.0352H2.28809V20.6055H18.2842V16.0352Z" fill="black"/>
<path fill-rule="evenodd" clip-rule="evenodd" d="M33.2959 14.7168C42.5684 14.7168 42.4189 14.708 42.5771 15.1123C42.6035 15.1914 42.6299 16.668 42.6299 18.3906C42.6299 21.4756 42.6299 21.5195 42.4365 21.7217L42.252 21.9238H24.4014L24.1992 21.7305L23.9971 21.5459V18.3643C23.9971 15.0332 23.9971 15.0332 24.3926 14.8223C24.5156 14.752 27.1523 14.7256 33.2959 14.7168ZM41.3115 16.0352H25.3154V20.6055H41.3115V16.0352Z" fill="black"/>
<path fill-rule="evenodd" clip-rule="evenodd" d="M3.54492 23.5938H19.1982L19.4004 23.7871L19.6025 23.9717V44.96L19.3828 45.1709L19.1719 45.3906H3.59766L3.38672 45.1709L3.16699 44.96V23.998L3.36035 23.7959L3.54492 23.5938ZM18.2842 24.9121H4.48535V44.0723H18.2842V24.9121Z" fill="black"/>
<path fill-rule="evenodd" clip-rule="evenodd" d="M24.375 23.5938H40.0283L40.2305 23.7871L40.4326 23.9717V44.96L40.2129 45.1709L40.002 45.3906H24.4277L24.2168 45.1709L23.9971 44.96V23.998L24.1904 23.7959L24.375 23.5938ZM39.1143 24.9121H25.3154V44.0723H39.1143V24.9121Z" fill="black"/>
</g>
<defs>
<clipPath id="clip0_7_7186">
<rect width="41.6602" height="45" fill="white" transform="translate(0.969727 0.390625)"/>
</clipPath>
</defs>
</svg>
