<svg width="46" height="46" viewBox="0 0 46 46" fill="none" xmlns="http://www.w3.org/2000/svg">
<g clip-path="url(#clip0_7_7201)">
<path fill-rule="evenodd" clip-rule="evenodd" d="M26.8601 0.460938C26.8952 0.460938 26.9304 0.469727 26.9655 0.487305L31.0437 2.20117C31.1667 2.25391 31.2282 2.37695 31.2019 2.5C29.989 7.80859 31.3601 11.043 33.32 12.792C33.3728 12.8359 33.4079 12.9062 33.4079 12.9854L33.4958 28.7529C33.4958 28.9023 33.3816 29.0166 33.2321 29.0166H33.0827C33.8562 33.165 34.5153 38.7549 35.0691 45.0303C35.0866 45.1797 34.9636 45.3203 34.8054 45.3203H10.7937C10.6355 45.3203 10.5124 45.1885 10.53 45.0303C11.0837 38.7549 11.7429 33.165 12.5163 29.0166H12.3669C12.2175 29.0166 12.1032 28.9023 12.1032 28.7529L12.1911 12.9854C12.1911 12.9062 12.2175 12.8359 12.279 12.792C14.239 11.043 15.6013 7.80859 14.3972 2.5C14.362 2.37695 14.4323 2.25391 14.5466 2.20117L18.6335 0.487305C18.6628 0.469727 18.695 0.460938 18.7302 0.460938H26.8601ZM20.1277 5.40918C20.7253 6.74512 21.5954 7.78223 22.7995 8.35351C24.0036 7.78223 24.865 6.74512 25.4626 5.40918C26.0515 4.1084 26.3767 2.55273 26.5612 0.99707H19.0378C19.2136 2.55273 19.5476 4.1084 20.1277 5.40918ZM14.9421 2.61426C16.0671 7.81738 14.7487 11.2012 12.7185 13.0732L12.6306 28.4893H32.9597L32.8718 13.0732C30.8503 11.2012 29.5319 7.81738 30.6569 2.61426L27.071 1.10254C26.8864 2.67578 26.5612 4.2666 25.946 5.62012C25.2956 7.0791 24.32 8.29199 22.905 8.91601C22.8347 8.94238 22.7556 8.94238 22.6941 8.91601C21.2702 8.29199 20.3034 7.08789 19.6443 5.62012C19.0378 4.2666 18.7126 2.67578 18.528 1.10254L14.9421 2.61426ZM11.0925 44.793H22.3337L22.5359 36.6894V36.6807C22.5359 36.3291 23.0632 36.3291 23.0632 36.6807V36.6894L23.2653 44.793H34.5153C33.9616 38.6055 33.3112 33.0859 32.5466 29.0254H13.0525C12.2878 33.0859 11.6374 38.6055 11.0925 44.793Z" fill="black"/>
</g>
<defs>
<clipPath id="clip0_7_7201">
<rect width="45" height="45" fill="white" transform="translate(0.299805 0.390625)"/>
</clipPath>
</defs>
</svg>
