<svg width="46" height="46" viewBox="0 0 46 46" fill="none" xmlns="http://www.w3.org/2000/svg">
<g clip-path="url(#clip0_1_7168)">
<path fill-rule="evenodd" clip-rule="evenodd" d="M45.6689 17.476C45.6689 18.9437 44.4736 20.139 43.0059 20.139H30.1123C29.4795 20.139 28.9082 19.9017 28.4512 19.5326C28.3164 19.5619 28.1816 19.5765 28.0469 19.5765H25.4189V29.6136C25.4189 31.556 23.8281 33.1381 21.8857 33.1381H4.46582C2.52344 33.1381 0.941406 31.556 0.941406 29.6136V13.1869C0.941406 12.8881 1.17871 12.642 1.47754 12.642H24.874C25.1728 12.642 25.4102 12.8881 25.4102 13.1869V15.3842H28.0469C28.1816 15.3842 28.3164 15.3959 28.4512 15.4193C28.9082 15.0502 29.4795 14.8217 30.1123 14.8217H43.0059C44.4736 14.8217 45.6689 16.017 45.6689 17.476ZM24.3291 13.7318H2.02246V29.6136C2.02246 30.9584 3.12109 32.057 4.46582 32.057H21.8857C23.2305 32.057 24.3291 30.9584 24.3291 29.6136V13.7318ZM25.4189 18.4867H27.6602C27.5283 18.1791 27.458 17.8363 27.458 17.476C27.458 17.1156 27.5283 16.7816 27.6602 16.4652H25.4189V18.4867ZM44.5791 17.476C44.5791 16.6058 43.876 15.9027 43.0059 15.9027H30.1123C29.2422 15.9027 28.5391 16.6058 28.5391 17.476C28.5391 18.3373 29.2422 19.0492 30.1123 19.0492H43.0059C43.876 19.0492 44.5791 18.3373 44.5791 17.476Z" fill="black"/>
</g>
<defs>
<clipPath id="clip0_1_7168">
<rect width="45" height="45" fill="white" transform="translate(0.800781 0.390015)"/>
</clipPath>
</defs>
</svg>
