<svg width="46" height="46" viewBox="0 0 46 46" fill="none" xmlns="http://www.w3.org/2000/svg">
<g clip-path="url(#clip0_7_7155)">
<g clip-path="url(#clip1_7_7155)">
<path fill-rule="evenodd" clip-rule="evenodd" d="M29.5059 10.9375C36.168 13.583 40.8877 20.043 40.8877 27.5752C40.8877 37.4541 32.7754 45.4961 22.7998 45.4961C12.8242 45.4961 4.71191 37.4541 4.71191 27.5752C4.71191 20.043 9.43164 13.583 16.0937 10.9375V7.74707C16.0937 6.56055 16.9287 5.55859 18.0537 5.3125C18.0449 5.20703 18.0361 5.10156 18.0361 5.00488C18.0361 2.40332 20.1719 0.285156 22.7998 0.285156C25.4189 0.285156 27.5547 2.40332 27.5547 5.00488C27.5547 5.10156 27.5547 5.20703 27.5459 5.3125C28.6709 5.55859 29.5059 6.56055 29.5059 7.74707V10.9375ZM19.1699 5.00488C19.1699 5.08398 19.1875 5.16309 19.1875 5.24219H26.4033C26.4121 5.16309 26.4297 5.08398 26.4297 5.00488C26.4297 3.02734 24.7949 1.41895 22.7998 1.41895C20.7959 1.41895 19.1699 3.02734 19.1699 5.00488ZM17.2187 10.5244C18.9766 9.96191 20.8486 9.6543 22.7998 9.6543C24.7422 9.6543 26.623 9.96191 28.3809 10.5244V7.74707C28.3809 6.99121 27.748 6.37598 26.9834 6.37598H18.6162C17.8428 6.37598 17.2187 6.99121 17.2187 7.74707V10.5244ZM6.34668 31.6445C6.54883 31.6709 6.74219 31.6885 6.94434 31.6885C9.2207 31.6885 11.0664 29.8428 11.0664 27.5664C11.0664 25.2988 9.2207 23.4531 6.94434 23.4531C6.75098 23.4531 6.54883 23.4707 6.34668 23.4971C6.02148 24.8066 5.8457 26.1689 5.8457 27.5664C5.8457 28.9727 6.02148 30.335 6.34668 31.6445ZM38.9014 32.8047C38.8223 32.8135 38.7344 32.8223 38.6465 32.8223C35.7549 32.8223 33.3994 30.4668 33.3994 27.5664C33.3994 24.6748 35.7549 22.3193 38.6465 22.3193C38.7344 22.3193 38.8223 22.3281 38.9014 22.3369C36.6777 15.6309 30.2969 10.7793 22.7998 10.7793C15.2939 10.7793 8.92187 15.6309 6.68945 22.3369C6.77734 22.3281 6.86523 22.3193 6.94434 22.3193C9.84473 22.3193 12.2002 24.6748 12.2002 27.5664C12.2002 30.4668 9.84473 32.8223 6.94434 32.8223C6.86523 32.8223 6.77734 32.8135 6.68945 32.8047C8.92187 39.5107 15.2939 44.3623 22.7998 44.3623C30.3057 44.3623 36.6777 39.5107 38.9014 32.8047ZM39.2441 23.4971C39.0508 23.4707 38.8486 23.4531 38.6465 23.4531C36.3789 23.4531 34.5332 25.2988 34.5332 27.5664C34.5332 29.8428 36.3789 31.6885 38.6465 31.6885C38.8486 31.6885 39.0508 31.6709 39.2441 31.6357C39.5781 30.335 39.7539 28.9727 39.7539 27.5664C39.7539 26.1689 39.5781 24.8066 39.2441 23.4971Z" fill="black"/>
<path fill-rule="evenodd" clip-rule="evenodd" d="M22.7822 32.8223C19.8818 32.8223 17.5352 30.4756 17.5352 27.5752C17.5352 24.6748 19.8818 22.3281 22.7822 22.3281C25.6826 22.3281 28.0293 24.6748 28.0293 27.5752C28.0293 30.4756 25.6826 32.8223 22.7822 32.8223ZM26.9043 27.5752C26.9043 25.2988 25.0586 23.4531 22.7822 23.4531C20.5059 23.4531 18.6602 25.2988 18.6602 27.5752C18.6602 29.8516 20.5059 31.6885 22.7822 31.6885C25.0586 31.6885 26.9043 29.8516 26.9043 27.5752Z" fill="black"/>
</g>
</g>
<defs>
<clipPath id="clip0_7_7155">
<rect width="45" height="45" fill="white" transform="translate(0.299805 0.390625)"/>
</clipPath>
<clipPath id="clip1_7_7155">
<rect width="45" height="45" fill="white" transform="translate(0.299805 0.390625)"/>
</clipPath>
</defs>
</svg>
