<svg width="46" height="46" viewBox="0 0 46 46" fill="none" xmlns="http://www.w3.org/2000/svg">
<g clip-path="url(#clip0_7_7165)">
<path d="M37.9346 22.3018H6.84766M6.84766 22.3018C6.03027 22.3018 5.30957 21.6865 5.21289 20.8691C5.30957 20.0518 6.03027 19.4365 6.84766 19.542H39.165C40.1846 19.4365 41.1074 20.1572 41.2129 21.1768V23.6289C41.1074 24.4463 40.3955 25.0615 39.5781 24.9561H6.84766C6.03027 25.0615 5.30957 24.4463 5.21289 23.6289C5.30957 22.8115 6.03027 22.1963 6.84766 22.3018ZM41.2129 28.4365H2.34766C1.31934 28.5332 0.405273 27.7158 0.299805 26.6963C0.405273 25.6768 1.31934 24.8506 2.34766 24.9561H42.7422C43.9727 24.8506 45.0977 25.7734 45.2998 27.0039V30.0713C45.1943 31.0908 44.2803 31.9082 43.252 31.8115H2.34766C1.31934 31.9082 0.405273 31.0908 0.299805 30.0713C0.405273 29.0518 1.31934 28.2256 2.34766 28.3311L41.2129 28.4365ZM23.9248 14.0137C31.7998 14.0137 38.2422 15.2441 38.2422 16.7822C38.2422 18.3115 31.7998 19.542 23.9248 19.542C16.0498 19.542 9.60742 18.3115 9.60742 16.7822C9.60742 15.2441 15.9443 14.0137 23.9248 14.0137Z" stroke="black" stroke-width="0.966797" stroke-linecap="round" stroke-linejoin="round"/>
</g>
<defs>
<clipPath id="clip0_7_7165">
<rect width="45" height="45" fill="white" transform="translate(0.299805 0.390625)"/>
</clipPath>
</defs>
</svg>
